External Loads File
version=1
nRows=77
nColumns=13
Range=5.000000e-03-10 seconds
endheader
time 	forceRightX 	forceRightY 	forceRightZ 	pointRightX 	pointRightY 	pointRightZ 	forceLeftX 	forceLeftY 	forceLeftZ 	pointLeftX 	pointLeftY 	pointLeftZ 		
7.505000 281.202325 416.841233 -0.000000 0.143481 0.135116 -0.118867 -112.037025 -8.025520 -0.000000 0.309536 0.456900 -0.364326
7.510000 255.984084 355.017364 -0.000000 0.136042 0.139320 -0.118955 -96.109456 10.549233 -0.000000 0.316637 0.453862 -0.364757
7.515000 227.380079 289.329718 -0.000000 0.129131 0.144130 -0.119108 -79.599707 30.792855 -0.000000 0.323053 0.449983 -0.365308
7.520000 195.848398 221.330816 -0.000000 0.122826 0.149451 -0.119163 -63.326030 52.678947 -0.000000 0.328867 0.445135 -0.365928
7.525000 161.870550 152.937607 -0.000000 0.117049 0.155002 -0.119256 -47.948006 76.253742 -0.000000 0.334214 0.439750 -0.366932
7.530000 126.128540 86.369143 -0.000000 0.111962 0.161039 -0.119104 -34.273931 101.679047 -0.000000 0.338544 0.434740 -0.367085
7.535000 90.100126 22.721336 -0.000000 0.107621 0.167236 -0.119044 -22.879234 129.481679 -0.000000 0.342204 0.429251 -0.367013
7.540000 54.488106 -37.300813 -0.000000 0.103575 0.173565 -0.119129 -14.278415 160.139174 -0.000000 0.345389 0.423116 -0.367081
7.545000 19.136588 -93.115179 -0.000000 0.099115 0.180314 -0.118957 -8.690482 193.934064 -0.000000 0.348160 0.416193 -0.367546
7.550000 -16.560361 -143.671239 -0.000000 0.094742 0.188001 -0.119800 -6.188547 230.767477 -0.000000 0.351039 0.408557 -0.367747
7.555000 -52.874662 -187.387193 -0.000000 0.091317 0.196230 -0.120316 -6.722501 270.062425 -0.000000 0.353639 0.399198 -0.368004
7.560000 -88.273350 -222.665191 -0.000000 0.088211 0.204149 -0.120928 -11.314381 310.674946 -0.000000 0.356031 0.390226 -0.367897
7.565000 -122.271341 -247.104023 -0.000000 0.085616 0.212831 -0.121360 -17.814862 351.112503 -0.000000 0.358349 0.380566 -0.367936
7.570000 -151.976246 -259.144717 -0.000000 0.083469 0.221516 -0.121478 -26.123974 389.646898 -0.000000 0.360371 0.370566 -0.367831
7.575000 -174.926267 -257.987968 -0.000000 0.081623 0.230626 -0.121638 -34.983557 424.715383 -0.000000 0.361967 0.360388 -0.367570
7.580000 -188.452460 -244.789671 -0.000000 0.079977 0.239576 -0.121650 -44.231106 455.079418 -0.000000 0.363081 0.350039 -0.367570
7.585000 -191.867595 -221.604318 -0.000000 0.078245 0.248793 -0.122447 -52.397541 480.229464 -0.000000 0.363857 0.339353 -0.367501
7.590000 -184.927028 -192.247166 -0.000000 0.078012 0.258454 -0.121219 -60.084463 500.131369 -0.000000 0.364144 0.328585 -0.367411
7.595000 -169.396573 -160.263290 -0.000000 0.077551 0.268682 -0.121025 -66.714962 515.470151 -0.000000 0.364148 0.318123 -0.367562
7.600000 -148.218314 -128.395309 -0.000000 0.077705 0.279432 -0.120854 -70.216562 527.558147 -0.000000 0.363355 0.306613 -0.367194
7.605000 -123.291608 -100.087796 -0.000000 0.078499 0.290258 -0.120847 -73.809227 537.176376 -0.000000 0.362311 0.295778 -0.367535
7.610000 -97.860757 -76.049989 -0.000000 0.080088 0.301477 -0.120888 -75.379080 545.802945 -0.000000 0.360513 0.285036 -0.367118
7.615000 -73.981078 -56.723958 -0.000000 0.082240 0.312740 -0.121347 -75.227620 554.500325 -0.000000 0.358171 0.274577 -0.366696
7.620000 -53.052990 -41.839472 -0.000000 0.085022 0.323867 -0.121743 -73.610848 564.171432 -0.000000 0.357451 0.264246 -0.363796
7.625000 -35.934741 -30.667997 -0.000000 0.088559 0.334729 -0.122274 -68.747418 575.745732 -0.000000 0.354232 0.253999 -0.363263
7.630000 -22.770405 -22.677954 -0.000000 0.092431 0.345306 -0.122989 -60.996853 589.551991 -0.000000 0.349804 0.244202 -0.363087
7.635000 -13.543469 -17.250850 -0.000000 0.097133 0.355897 -0.123525 -46.707435 605.954961 -0.000000 0.342830 0.234516 -0.365803
7.640000 -7.814433 -14.129061 -0.000000 0.102507 0.366204 -0.123969 -29.787407 624.276486 -0.000000 0.337374 0.225083 -0.365488
7.645000 -5.276194 -12.895555 -0.000000 0.108336 0.376192 -0.124316 -9.052214 644.134168 -0.000000 0.331188 0.216093 -0.365399
7.650000 -5.551862 -13.129135 -0.000000 0.114713 0.385877 -0.124679 15.566083 664.803080 -0.000000 0.324411 0.207487 -0.365243
7.655000 -8.217996 -14.300962 -0.000000 0.121357 0.395156 -0.125158 43.295402 685.431639 -0.000000 0.317217 0.199045 -0.365137
7.660000 -12.706184 -15.834910 -0.000000 0.128698 0.404033 -0.125516 70.268948 705.509537 -0.000000 0.311439 0.191119 -0.362202
7.665000 -18.562731 -17.009904 -0.000000 0.136426 0.412332 -0.125870 101.393002 723.849832 -0.000000 0.303447 0.183735 -0.361984
7.670000 -25.133800 -17.309159 -0.000000 0.144538 0.420004 -0.126217 132.933017 740.018551 -0.000000 0.295086 0.176839 -0.361726
7.675000 -31.959919 -16.147278 -0.000000 0.153144 0.426983 -0.126568 168.474658 752.566126 -0.000000 0.284518 0.170537 -0.364254
7.680000 -38.368820 -13.617490 -0.000000 0.162335 0.433366 -0.126619 199.298247 762.715383 -0.000000 0.275610 0.164899 -0.364047
7.685000 -44.125050 -9.331386 -0.000000 0.171696 0.439014 -0.126689 233.060602 768.203454 -0.000000 0.266598 0.153827 -0.363906
7.690000 -48.838981 -3.875002 -0.000000 0.182456 0.443954 -0.126127 261.365428 771.166581 -0.000000 0.257335 0.149178 -0.363788
7.695000 -52.462822 2.180927 -0.000000 0.190746 0.448308 -0.127063 280.643870 773.261561 -0.000000 0.247956 0.144957 -0.363715
7.700000 -55.076286 8.977872 -0.000000 0.200658 0.451989 -0.127105 298.547416 772.085688 -0.000000 0.238500 0.147407 -0.363657
7.705000 -56.675293 16.445724 -0.000000 0.211077 0.455083 -0.126802 317.810077 766.409989 -0.000000 0.228950 0.144434 -0.363663
7.710000 -57.426103 24.010126 -0.000000 0.220953 0.457559 -0.127325 332.837622 758.201380 -0.000000 0.219348 0.141965 -0.363643
7.715000 -57.379468 31.809965 -0.000000 0.231040 0.459509 -0.127308 345.851755 746.123045 -0.000000 0.209617 0.140142 -0.363690
7.720000 -56.616323 39.896263 -0.000000 0.240894 0.460762 -0.127326 355.671695 730.086925 -0.000000 0.199903 0.138982 -0.363724
7.725000 -54.990085 48.661260 -0.000000 0.251157 0.461350 -0.127419 364.045651 708.542164 -0.000000 0.190143 0.138624 -0.363820
7.730000 -52.554682 58.167898 -0.000000 0.260782 0.461286 -0.127551 368.143175 682.243108 -0.000000 0.180516 0.138764 -0.364076
7.735000 -48.987284 68.798918 -0.000000 0.270420 0.460642 -0.127551 369.834734 649.703263 -0.000000 0.170839 0.139873 -0.364129
7.740000 -44.126405 80.634225 -0.000000 0.279731 0.459357 -0.127568 367.987110 611.271894 -0.000000 0.161254 0.141830 -0.364105
7.745000 -37.644670 93.782864 -0.000000 0.289004 0.457321 -0.127176 362.982238 566.833263 -0.000000 0.151680 0.144404 -0.363846
7.750000 -30.104500 107.983802 -0.000000 0.297692 0.454879 -0.127107 350.726934 519.628042 -0.000000 0.142590 0.144407 -0.363648
7.755000 -19.934958 123.646408 -0.000000 0.305563 0.451727 -0.126926 338.747295 465.455027 -0.000000 0.133711 0.151970 -0.363409
7.760000 -8.458222 140.454337 -0.000000 0.313409 0.447977 -0.126725 320.688912 409.460184 -0.000000 0.125256 0.156634 -0.363732
7.765000 4.329717 158.807156 -0.000000 0.320230 0.444034 -0.126590 297.868232 351.624998 -0.000000 0.117281 0.161890 -0.363223
7.770000 18.399596 179.319102 -0.000000 0.326370 0.439808 -0.126448 271.160182 292.005627 -0.000000 0.109810 0.167716 -0.362627
7.775000 33.695995 202.762134 -0.000000 0.331923 0.434806 -0.126192 241.219172 230.751953 -0.000000 0.102987 0.174019 -0.362144
7.780000 49.826655 229.932648 -0.000000 0.336823 0.429529 -0.125825 208.385492 168.460699 -0.000000 0.096835 0.180972 -0.361830
7.785000 66.142381 261.373965 -0.000000 0.341088 0.423792 -0.125077 173.260804 105.813030 -0.000000 0.091239 0.187958 -0.361474
7.790000 82.532134 296.815620 -0.000000 0.344874 0.417252 -0.124664 136.785416 43.202576 -0.000000 0.086106 0.195609 -0.361231
7.795000 97.858736 335.398558 -0.000000 0.348449 0.410226 -0.123813 99.273482 -17.967251 -0.000000 0.081277 0.203560 -0.361407
7.800000 106.824466 376.787585 -0.000000 0.351551 0.402462 -0.123461 61.933497 -75.350942 -0.000000 0.077066 0.207468 -0.360872
7.805000 121.611698 415.171133 -0.000000 0.355090 0.393892 -0.123088 22.512839 -128.971816 -0.000000 0.073604 0.220315 -0.360624
7.810000 128.670533 452.090668 -0.000000 0.358302 0.384677 -0.122778 -15.662416 -174.379556 -0.000000 0.071056 0.228939 -0.360241
7.815000 131.825529 484.289702 -0.000000 0.361273 0.374875 -0.122575 -52.082533 -210.231414 -0.000000 0.069171 0.237298 -0.360486
7.820000 130.705503 510.302978 -0.000000 0.363877 0.365104 -0.122652 -84.771763 -235.270564 -0.000000 0.067937 0.245671 -0.360623
7.825000 126.463550 529.123460 -0.000000 0.366022 0.355270 -0.122445 -112.186183 -249.010580 -0.000000 0.066862 0.254362 -0.360748
7.830000 120.094287 540.806089 -0.000000 0.367962 0.345103 -0.122468 -132.873293 -251.897999 -0.000000 0.065756 0.263314 -0.359729
7.835000 112.093591 546.423705 -0.000000 0.369404 0.334513 -0.122433 -145.538948 -245.355842 -0.000000 0.065089 0.272650 -0.359791
7.840000 103.199499 547.563201 -0.000000 0.370551 0.323587 -0.122442 -149.578167 -231.407810 -0.000000 0.064721 0.282358 -0.359906
7.845000 94.069182 546.000472 -0.000000 0.370980 0.312522 -0.122199 -145.105888 -212.435085 -0.000000 0.064617 0.292530 -0.360013
7.850000 84.943587 543.469306 -0.000000 0.370847 0.301532 -0.122199 -132.951351 -190.854356 -0.000000 0.064929 0.302921 -0.360021
7.855000 77.017958 541.301764 -0.000000 0.370620 0.290319 -0.121096 -115.022006 -168.417285 -0.000000 0.065828 0.313350 -0.360114
7.860000 70.745420 540.616881 -0.000000 0.369302 0.279425 -0.122457 -93.304954 -146.512519 -0.000000 0.067220 0.323999 -0.360257
7.865000 66.673785 542.090428 -0.000000 0.367520 0.268496 -0.122565 -69.826500 -125.938757 -0.000000 0.069306 0.334328 -0.360388
7.870000 65.630206 545.917112 -0.000000 0.365020 0.257810 -0.122428 -46.353293 -107.036720 -0.000000 0.071991 0.344624 -0.360556
7.875000 67.794509 551.979552 -0.000000 0.361882 0.247625 -0.122516 -24.026191 -90.003571 -0.000000 0.075370 0.354936 -0.360760
7.880000 73.010409 559.924764 -0.000000 0.358029 0.237464 -0.122649 -3.530792 -74.929258 -0.000000 0.079425 0.364493 -0.360961
7.885000 81.926456 569.118192 -0.000000 0.353567 0.227713 -0.122736 14.620571 -61.873041 -0.000000 0.084129 0.374045 -0.361117
